STARTFONT 2.3
FONT -FontForge-Satisfy-Book-R-Normal--10-100-72-72-P-44-ISO10646-1
SIZE 10 72 72  2
FONTBOUNDINGBOX 12 15 -2 -5
COMMENT "Generated by fontforge, http://fontforge.sourceforge.net"
COMMENT "Copyright (c) 2011 by Font Diner, Inc. All rights reserved."
STARTPROPERTIES 40
FOUNDRY "FontForge"
FAMILY_NAME "Satisfy"
WEIGHT_NAME "Book"
SLANT "R"
SETWIDTH_NAME "Normal"
ADD_STYLE_NAME ""
PIXEL_SIZE 10
POINT_SIZE 100
RESOLUTION_X 72
RESOLUTION_Y 72
SPACING "P"
AVERAGE_WIDTH 44
CHARSET_REGISTRY "ISO10646"
CHARSET_ENCODING "1"
FONTNAME_REGISTRY ""
CHARSET_COLLECTIONS "ISO10646-1"
BITS_PER_PIXEL 2
FONT_NAME "Satisfy-Regular"
FACE_NAME "Satisfy Regular"
COPYRIGHT "Copyright (c) 2011 by Font Diner, Inc. All rights reserved."
FONT_VERSION "1.001"
FONT_ASCENT 8
FONT_DESCENT 2
UNDERLINE_POSITION -1
UNDERLINE_THICKNESS 1
X_HEIGHT 3
CAP_HEIGHT 7
RAW_ASCENT 799
RAW_DESCENT 200
NORM_SPACE 3
RELATIVE_WEIGHT 40
RELATIVE_SETWIDTH 50
SUPERSCRIPT_X 0
SUPERSCRIPT_Y 4
SUPERSCRIPT_SIZE 6
SUBSCRIPT_X 0
SUBSCRIPT_Y 1
SUBSCRIPT_SIZE 6
AVG_LOWERCASE_WIDTH 42
AVG_UPPERCASE_WIDTH 57
ENDPROPERTIES
CHARS 227
STARTCHAR space
ENCODING 32
SWIDTH 280 0
DWIDTH 3 0
BBX 1 1 0 0
BITMAP
00
ENDCHAR
STARTCHAR exclam
ENCODING 33
SWIDTH 249 0
DWIDTH 2 0
BBX 3 8 0 0
BITMAP
04
24
24
30
60
50
40
80
ENDCHAR
STARTCHAR quotedbl
ENCODING 34
SWIDTH 249 0
DWIDTH 2 0
BBX 3 4 0 4
BITMAP
10
28
58
54
ENDCHAR
STARTCHAR numbersign
ENCODING 35
SWIDTH 417 0
DWIDTH 4 0
BBX 5 5 0 1
BITMAP
1600
7A40
6900
A900
5400
ENDCHAR
STARTCHAR dollar
ENCODING 36
SWIDTH 292 0
DWIDTH 3 0
BBX 5 7 -1 0
BITMAP
0600
1540
1500
0800
0900
5800
2400
ENDCHAR
STARTCHAR percent
ENCODING 37
SWIDTH 574 0
DWIDTH 6 0
BBX 6 8 0 0
BITMAP
0010
6890
8980
5A00
0940
1690
2550
9280
ENDCHAR
STARTCHAR ampersand
ENCODING 38
SWIDTH 460 0
DWIDTH 5 0
BBX 5 9 -1 -1
BITMAP
0040
0280
0680
0600
1D00
2600
5240
6740
0140
ENDCHAR
STARTCHAR quotesingle
ENCODING 39
SWIDTH 113 0
DWIDTH 1 0
BBX 2 4 0 4
BITMAP
10
20
50
40
ENDCHAR
STARTCHAR parenleft
ENCODING 40
SWIDTH 234 0
DWIDTH 2 0
BBX 3 9 0 -1
BITMAP
08
14
20
50
90
80
80
80
40
ENDCHAR
STARTCHAR parenright
ENCODING 41
SWIDTH 204 0
DWIDTH 2 0
BBX 3 9 -1 -1
BITMAP
08
08
08
08
08
14
20
50
80
ENDCHAR
STARTCHAR asterisk
ENCODING 42
SWIDTH 327 0
DWIDTH 3 0
BBX 4 3 0 4
BITMAP
58
29
28
ENDCHAR
STARTCHAR plus
ENCODING 43
SWIDTH 350 0
DWIDTH 4 0
BBX 4 3 0 2
BITMAP
14
B9
20
ENDCHAR
STARTCHAR comma
ENCODING 44
SWIDTH 200 0
DWIDTH 2 0
BBX 1 2 0 -1
BITMAP
80
80
ENDCHAR
STARTCHAR hyphen
ENCODING 45
SWIDTH 353 0
DWIDTH 4 0
BBX 3 2 0 2
BITMAP
54
54
ENDCHAR
STARTCHAR period
ENCODING 46
SWIDTH 213 0
DWIDTH 2 0
BBX 1 1 0 0
BITMAP
80
ENDCHAR
STARTCHAR slash
ENCODING 47
SWIDTH 262 0
DWIDTH 3 0
BBX 5 8 -1 0
BITMAP
0040
0140
0200
0500
0800
2000
6000
8000
ENDCHAR
STARTCHAR zero
ENCODING 48
SWIDTH 489 0
DWIDTH 5 0
BBX 5 8 0 0
BITMAP
0100
1A00
2140
6140
9140
9200
9600
6800
ENDCHAR
STARTCHAR one
ENCODING 49
SWIDTH 272 0
DWIDTH 3 0
BBX 3 7 0 0
BITMAP
24
24
20
20
50
90
80
ENDCHAR
STARTCHAR two
ENCODING 50
SWIDTH 448 0
DWIDTH 4 0
BBX 5 8 0 0
BITMAP
0500
2640
2240
0200
0900
2400
9000
ED00
ENDCHAR
STARTCHAR three
ENCODING 51
SWIDTH 462 0
DWIDTH 5 0
BBX 5 9 0 -1
BITMAP
0500
2640
6240
0600
1D00
0200
4600
E800
1000
ENDCHAR
STARTCHAR four
ENCODING 52
SWIDTH 452 0
DWIDTH 5 0
BBX 4 7 0 0
BITMAP
07
1A
62
EA
59
08
0C
ENDCHAR
STARTCHAR five
ENCODING 53
SWIDTH 444 0
DWIDTH 4 0
BBX 5 9 0 -1
BITMAP
0100
2A80
2000
6500
6600
0200
8500
E800
1000
ENDCHAR
STARTCHAR six
ENCODING 54
SWIDTH 477 0
DWIDTH 5 0
BBX 5 8 0 0
BITMAP
0100
0A40
2100
2900
7200
9200
9200
6800
ENDCHAR
STARTCHAR seven
ENCODING 55
SWIDTH 406 0
DWIDTH 4 0
BBX 5 8 0 0
BITMAP
0500
2A40
0200
0900
1800
2400
2000
6000
ENDCHAR
STARTCHAR eight
ENCODING 56
SWIDTH 444 0
DWIDTH 4 0
BBX 5 9 0 -1
BITMAP
0500
1540
2240
2900
2C00
9900
8500
9800
1000
ENDCHAR
STARTCHAR nine
ENCODING 57
SWIDTH 462 0
DWIDTH 5 0
BBX 5 8 0 0
BITMAP
0500
1600
2140
5240
5700
2600
4900
A800
ENDCHAR
STARTCHAR colon
ENCODING 58
SWIDTH 226 0
DWIDTH 2 0
BBX 2 3 0 0
BITMAP
50
00
80
ENDCHAR
STARTCHAR semicolon
ENCODING 59
SWIDTH 212 0
DWIDTH 2 0
BBX 2 4 0 -1
BITMAP
90
00
80
80
ENDCHAR
STARTCHAR less
ENCODING 60
SWIDTH 271 0
DWIDTH 3 0
BBX 3 4 0 1
BITMAP
24
90
90
20
ENDCHAR
STARTCHAR equal
ENCODING 61
SWIDTH 374 0
DWIDTH 4 0
BBX 4 3 0 2
BITMAP
15
65
94
ENDCHAR
STARTCHAR greater
ENCODING 62
SWIDTH 250 0
DWIDTH 3 0
BBX 4 4 -1 1
BITMAP
18
09
18
60
ENDCHAR
STARTCHAR question
ENCODING 63
SWIDTH 413 0
DWIDTH 4 0
BBX 5 9 0 -1
BITMAP
0500
6640
5140
0200
2800
6000
5000
8000
4000
ENDCHAR
STARTCHAR at
ENCODING 64
SWIDTH 648 0
DWIDTH 6 0
BBX 8 7 -1 0
BITMAP
0150
0914
25A4
2565
5898
2A88
18A0
ENDCHAR
STARTCHAR A
ENCODING 65
SWIDTH 552 0
DWIDTH 6 0
BBX 6 11 -1 -3
BITMAP
0010
01A0
0220
0920
0860
1990
79D0
3080
60C0
90D0
0040
ENDCHAR
STARTCHAR B
ENCODING 66
SWIDTH 607 0
DWIDTH 6 0
BBX 6 10 0 -2
BITMAP
0540
2DA0
1860
2490
2580
3A80
6080
90C0
C280
A900
ENDCHAR
STARTCHAR C
ENCODING 67
SWIDTH 548 0
DWIDTH 5 0
BBX 6 10 0 -2
BITMAP
0140
0990
2450
70D0
A000
D000
C000
C000
9100
2900
ENDCHAR
STARTCHAR D
ENCODING 68
SWIDTH 632 0
DWIDTH 6 0
BBX 6 10 0 -2
BITMAP
0500
2980
1460
2430
2430
3060
2090
5180
9200
A800
ENDCHAR
STARTCHAR E
ENCODING 69
SWIDTH 523 0
DWIDTH 5 0
BBX 7 10 -1 -2
BITMAP
0050
0664
0C24
1C20
0D00
0A40
2000
6010
3080
1A00
ENDCHAR
STARTCHAR F
ENCODING 70
SWIDTH 585 0
DWIDTH 6 0
BBX 6 10 0 -2
BITMAP
0540
2560
6460
1080
1680
1640
0600
0900
0C00
0800
ENDCHAR
STARTCHAR G
ENCODING 71
SWIDTH 612 0
DWIDTH 6 0
BBX 6 10 0 -2
BITMAP
0140
0950
1860
30D0
6000
9150
9180
9080
9200
2900
ENDCHAR
STARTCHAR H
ENCODING 72
SWIDTH 649 0
DWIDTH 7 0
BBX 7 9 0 -2
BITMAP
0824
1830
2460
3090
7EE0
6280
9180
8140
8140
ENDCHAR
STARTCHAR I
ENCODING 73
SWIDTH 537 0
DWIDTH 5 0
BBX 6 10 -1 -2
BITMAP
0010
01A0
0220
0360
0250
0190
2AD0
A180
9200
2900
ENDCHAR
STARTCHAR J
ENCODING 74
SWIDTH 500 0
DWIDTH 5 0
BBX 7 10 -1 -2
BITMAP
0050
01A4
0060
0090
00C0
15C0
6580
9240
8600
6800
ENDCHAR
STARTCHAR K
ENCODING 75
SWIDTH 497 0
DWIDTH 5 0
BBX 7 11 -1 -3
BITMAP
0100
0624
0830
0890
1980
2E00
2180
3180
6240
5240
0190
ENDCHAR
STARTCHAR L
ENCODING 76
SWIDTH 492 0
DWIDTH 5 0
BBX 7 10 -1 -2
BITMAP
0010
00A4
01A0
02D0
1B40
0200
0600
0800
BC00
56D0
ENDCHAR
STARTCHAR M
ENCODING 77
SWIDTH 733 0
DWIDTH 7 0
BBX 9 9 -1 -2
BITMAP
028740
028A00
069A00
09A600
0DA500
99D800
99CC00
A44C00
600900
ENDCHAR
STARTCHAR N
ENCODING 78
SWIDTH 541 0
DWIDTH 5 0
BBX 8 10 -1 -2
BITMAP
0004
0929
0D24
1A74
1660
2250
2280
6280
6280
6140
ENDCHAR
STARTCHAR O
ENCODING 79
SWIDTH 567 0
DWIDTH 6 0
BBX 5 10 0 -2
BITMAP
0100
0980
2480
6080
9080
90C0
C080
C240
8200
6800
ENDCHAR
STARTCHAR P
ENCODING 80
SWIDTH 552 0
DWIDTH 6 0
BBX 7 10 -1 -2
BITMAP
0150
0A24
1518
0814
0820
0980
1900
2400
3000
6000
ENDCHAR
STARTCHAR Q
ENCODING 81
SWIDTH 583 0
DWIDTH 6 0
BBX 6 10 0 -2
BITMAP
0100
1980
2450
6050
9090
9080
9180
2240
6A00
6580
ENDCHAR
STARTCHAR R
ENCODING 82
SWIDTH 560 0
DWIDTH 6 0
BBX 6 11 0 -3
BITMAP
0540
2890
1460
2460
2080
7A40
6500
9200
9200
8340
0140
ENDCHAR
STARTCHAR S
ENCODING 83
SWIDTH 474 0
DWIDTH 5 0
BBX 6 10 -1 -2
BITMAP
0140
0A60
0830
1850
0A00
0340
0180
5140
6200
2900
ENDCHAR
STARTCHAR T
ENCODING 84
SWIDTH 423 0
DWIDTH 4 0
BBX 5 10 0 -2
BITMAP
0540
AA40
0800
0C00
1800
1400
2000
3000
6000
5000
ENDCHAR
STARTCHAR U
ENCODING 85
SWIDTH 574 0
DWIDTH 6 0
BBX 6 10 0 -2
BITMAP
0010
1870
2460
3090
60C0
9080
8180
C240
C740
6540
ENDCHAR
STARTCHAR V
ENCODING 86
SWIDTH 503 0
DWIDTH 5 0
BBX 6 9 0 -2
BITMAP
3090
60C0
5180
5240
9300
9600
5900
6800
2400
ENDCHAR
STARTCHAR W
ENCODING 87
SWIDTH 817 0
DWIDTH 8 0
BBX 8 10 0 -2
BITMAP
0401
2483
30C3
6182
5146
9245
8348
8648
9960
6090
ENDCHAR
STARTCHAR X
ENCODING 88
SWIDTH 579 0
DWIDTH 6 0
BBX 8 10 -1 -2
BITMAP
0400
160D
2624
1A60
0280
0240
0740
0980
2484
5064
ENDCHAR
STARTCHAR Y
ENCODING 89
SWIDTH 532 0
DWIDTH 5 0
BBX 6 10 0 -2
BITMAP
0010
2460
3090
60C0
5180
9240
AA40
1200
4500
A400
ENDCHAR
STARTCHAR Z
ENCODING 90
SWIDTH 455 0
DWIDTH 5 0
BBX 6 10 -1 -2
BITMAP
0140
0AB0
0060
00C0
0240
0900
1800
2000
9540
AA40
ENDCHAR
STARTCHAR bracketleft
ENCODING 91
SWIDTH 202 0
DWIDTH 2 0
BBX 4 10 -1 -1
BITMAP
01
05
08
08
14
20
20
20
50
60
ENDCHAR
STARTCHAR backslash
ENCODING 92
SWIDTH 273 0
DWIDTH 3 0
BBX 3 7 0 0
BITMAP
90
50
50
20
20
20
24
ENDCHAR
STARTCHAR bracketright
ENCODING 93
SWIDTH 216 0
DWIDTH 2 0
BBX 4 10 -1 -1
BITMAP
04
09
05
08
08
08
14
20
20
90
ENDCHAR
STARTCHAR asciicircum
ENCODING 94
SWIDTH 287 0
DWIDTH 3 0
BBX 3 4 0 3
BITMAP
28
68
88
44
ENDCHAR
STARTCHAR underscore
ENCODING 95
SWIDTH 439 0
DWIDTH 4 0
BBX 5 1 -1 0
BITMAP
AA80
ENDCHAR
STARTCHAR grave
ENCODING 96
SWIDTH 567 0
DWIDTH 6 0
BBX 2 2 2 5
BITMAP
60
10
ENDCHAR
STARTCHAR a
ENCODING 97
SWIDTH 435 0
DWIDTH 4 0
BBX 5 4 0 0
BITMAP
2800
8800
8840
EA00
ENDCHAR
STARTCHAR b
ENCODING 98
SWIDTH 415 0
DWIDTH 4 0
BBX 5 7 0 0
BITMAP
2400
3400
7000
A400
8A40
8800
A400
ENDCHAR
STARTCHAR c
ENCODING 99
SWIDTH 363 0
DWIDTH 4 0
BBX 4 5 0 -1
BITMAP
68
84
81
98
10
ENDCHAR
STARTCHAR d
ENCODING 100
SWIDTH 483 0
DWIDTH 5 0
BBX 5 7 0 0
BITMAP
0180
0280
0240
2B00
8500
8840
A940
ENDCHAR
STARTCHAR e
ENCODING 101
SWIDTH 372 0
DWIDTH 4 0
BBX 4 5 0 -1
BITMAP
28
94
D1
98
10
ENDCHAR
STARTCHAR f
ENCODING 102
SWIDTH 325 0
DWIDTH 3 0
BBX 5 12 -1 -5
BITMAP
0900
0900
0800
0800
1940
3000
2800
5500
5500
8800
9800
9000
ENDCHAR
STARTCHAR g
ENCODING 103
SWIDTH 459 0
DWIDTH 5 0
BBX 5 9 0 -5
BITMAP
2900
8900
8940
AE00
1800
5800
9400
A000
A000
ENDCHAR
STARTCHAR h
ENCODING 104
SWIDTH 465 0
DWIDTH 5 0
BBX 5 7 0 0
BITMAP
2400
2000
2000
6900
9500
8840
8A00
ENDCHAR
STARTCHAR i
ENCODING 105
SWIDTH 274 0
DWIDTH 3 0
BBX 3 7 0 0
BITMAP
10
10
00
50
90
84
A4
ENDCHAR
STARTCHAR j
ENCODING 106
SWIDTH 267 0
DWIDTH 3 0
BBX 5 12 -2 -5
BITMAP
0100
0100
0000
0500
0900
0840
0E00
1800
6400
A000
A000
4000
ENDCHAR
STARTCHAR k
ENCODING 107
SWIDTH 440 0
DWIDTH 4 0
BBX 5 8 0 -1
BITMAP
2400
3000
2000
6900
9800
9840
8A00
0400
ENDCHAR
STARTCHAR l
ENCODING 108
SWIDTH 218 0
DWIDTH 2 0
BBX 3 7 0 0
BITMAP
24
30
20
60
90
80
80
ENDCHAR
STARTCHAR m
ENCODING 109
SWIDTH 717 0
DWIDTH 7 0
BBX 8 4 0 0
BITMAP
59A0
6760
9561
C868
ENDCHAR
STARTCHAR n
ENCODING 110
SWIDTH 461 0
DWIDTH 5 0
BBX 5 4 0 0
BITMAP
6900
A500
8840
8A40
ENDCHAR
STARTCHAR o
ENCODING 111
SWIDTH 393 0
DWIDTH 4 0
BBX 5 4 0 0
BITMAP
6400
9940
AC00
A400
ENDCHAR
STARTCHAR p
ENCODING 112
SWIDTH 451 0
DWIDTH 5 0
BBX 6 8 -1 -4
BITMAP
1A40
1940
2250
3F80
6400
5000
8000
C000
ENDCHAR
STARTCHAR q
ENCODING 113
SWIDTH 462 0
DWIDTH 5 0
BBX 5 9 0 -5
BITMAP
2600
8600
C900
9D40
1900
1800
2400
2400
1000
ENDCHAR
STARTCHAR r
ENCODING 114
SWIDTH 406 0
DWIDTH 4 0
BBX 6 6 -1 -1
BITMAP
0400
1D00
2700
1550
4940
0100
ENDCHAR
STARTCHAR s
ENCODING 115
SWIDTH 351 0
DWIDTH 4 0
BBX 3 6 0 -1
BITMAP
10
30
64
58
94
10
ENDCHAR
STARTCHAR t
ENCODING 116
SWIDTH 301 0
DWIDTH 3 0
BBX 5 7 -1 0
BITMAP
0500
5E40
1C00
1800
1440
2140
2900
ENDCHAR
STARTCHAR u
ENCODING 117
SWIDTH 468 0
DWIDTH 5 0
BBX 5 4 0 0
BITMAP
5500
8900
8840
AA40
ENDCHAR
STARTCHAR v
ENCODING 118
SWIDTH 427 0
DWIDTH 4 0
BBX 5 4 0 0
BITMAP
8600
8940
8900
A000
ENDCHAR
STARTCHAR w
ENCODING 119
SWIDTH 646 0
DWIDTH 6 0
BBX 7 4 0 0
BITMAP
5550
88A4
8890
9A40
ENDCHAR
STARTCHAR x
ENCODING 120
SWIDTH 399 0
DWIDTH 4 0
BBX 5 4 -1 0
BITMAP
2640
0E00
1C00
6640
ENDCHAR
STARTCHAR y
ENCODING 121
SWIDTH 406 0
DWIDTH 4 0
BBX 4 8 0 -4
BITMAP
95
85
8C
E8
18
14
20
30
ENDCHAR
STARTCHAR z
ENCODING 122
SWIDTH 448 0
DWIDTH 4 0
BBX 6 9 -1 -5
BITMAP
0A80
0140
0210
0A90
0640
2600
6600
6800
1000
ENDCHAR
STARTCHAR braceleft
ENCODING 123
SWIDTH 243 0
DWIDTH 2 0
BBX 3 9 0 -1
BITMAP
18
20
20
20
90
50
80
80
D0
ENDCHAR
STARTCHAR bar
ENCODING 124
SWIDTH 253 0
DWIDTH 3 0
BBX 3 7 0 0
BITMAP
14
20
20
60
50
80
C0
ENDCHAR
STARTCHAR braceright
ENCODING 125
SWIDTH 243 0
DWIDTH 2 0
BBX 4 9 -1 -1
BITMAP
09
05
08
08
08
14
20
20
A0
ENDCHAR
STARTCHAR asciitilde
ENCODING 126
SWIDTH 329 0
DWIDTH 3 0
BBX 4 1 0 3
BITMAP
A9
ENDCHAR
STARTCHAR uni00A0
ENCODING 160
SWIDTH 280 0
DWIDTH 3 0
BBX 1 1 0 0
BITMAP
00
ENDCHAR
STARTCHAR exclamdown
ENCODING 161
SWIDTH 249 0
DWIDTH 2 0
BBX 3 8 0 0
BITMAP
04
14
10
20
60
50
90
C0
ENDCHAR
STARTCHAR cent
ENCODING 162
SWIDTH 322 0
DWIDTH 3 0
BBX 4 7 0 0
BITMAP
08
25
88
80
80
94
50
ENDCHAR
STARTCHAR sterling
ENCODING 163
SWIDTH 318 0
DWIDTH 3 0
BBX 5 7 -1 0
BITMAP
0540
0940
1500
2800
2000
6500
5400
ENDCHAR
STARTCHAR currency
ENCODING 164
SWIDTH 347 0
DWIDTH 3 0
BBX 4 3 0 2
BITMAP
69
58
98
ENDCHAR
STARTCHAR yen
ENCODING 165
SWIDTH 326 0
DWIDTH 3 0
BBX 4 6 0 1
BITMAP
11
55
28
20
74
60
ENDCHAR
STARTCHAR brokenbar
ENCODING 166
SWIDTH 253 0
DWIDTH 3 0
BBX 3 7 0 0
BITMAP
14
20
20
00
50
80
C0
ENDCHAR
STARTCHAR section
ENCODING 167
SWIDTH 297 0
DWIDTH 3 0
BBX 5 8 -1 0
BITMAP
0100
0940
0800
1900
2200
1900
1800
5800
ENDCHAR
STARTCHAR dieresis
ENCODING 168
SWIDTH 567 0
DWIDTH 6 0
BBX 3 1 2 6
BITMAP
54
ENDCHAR
STARTCHAR copyright
ENCODING 169
SWIDTH 456 0
DWIDTH 5 0
BBX 5 6 0 2
BITMAP
0400
2540
5980
9080
9540
1500
ENDCHAR
STARTCHAR ordfeminine
ENCODING 170
SWIDTH 373 0
DWIDTH 4 0
BBX 5 5 -1 0
BITMAP
0900
2200
2600
2640
6900
ENDCHAR
STARTCHAR guillemotleft
ENCODING 171
SWIDTH 346 0
DWIDTH 3 0
BBX 4 4 -1 0
BITMAP
05
25
68
25
ENDCHAR
STARTCHAR logicalnot
ENCODING 172
SWIDTH 512 0
DWIDTH 5 0
BBX 5 2 0 2
BITMAP
AA80
0080
ENDCHAR
STARTCHAR sfthyphen
ENCODING 173
SWIDTH 353 0
DWIDTH 4 0
BBX 3 2 0 2
BITMAP
54
54
ENDCHAR
STARTCHAR registered
ENCODING 174
SWIDTH 456 0
DWIDTH 5 0
BBX 5 6 0 2
BITMAP
0400
2940
5580
9880
9640
1500
ENDCHAR
STARTCHAR macron
ENCODING 175
SWIDTH 567 0
DWIDTH 6 0
BBX 3 1 2 6
BITMAP
64
ENDCHAR
STARTCHAR degree
ENCODING 176
SWIDTH 144 0
DWIDTH 1 0
BBX 2 2 0 5
BITMAP
50
10
ENDCHAR
STARTCHAR twosuperior
ENCODING 178
SWIDTH 268 0
DWIDTH 3 0
BBX 3 5 0 3
BITMAP
14
28
08
20
A4
ENDCHAR
STARTCHAR threesuperior
ENCODING 179
SWIDTH 262 0
DWIDTH 3 0
BBX 3 6 0 2
BITMAP
14
68
18
18
94
10
ENDCHAR
STARTCHAR acute
ENCODING 180
SWIDTH 567 0
DWIDTH 6 0
BBX 2 2 2 5
BITMAP
10
50
ENDCHAR
STARTCHAR mu
ENCODING 181
SWIDTH 453 0
DWIDTH 5 0
BBX 6 6 -1 -2
BITMAP
1100
2300
6210
AA80
8000
8000
ENDCHAR
STARTCHAR paragraph
ENCODING 182
SWIDTH 411 0
DWIDTH 4 0
BBX 5 7 0 0
BITMAP
2F80
BE00
BA00
1A00
1500
2500
2800
ENDCHAR
STARTCHAR periodcentered
ENCODING 183
SWIDTH 168 0
DWIDTH 2 0
BBX 2 1 0 3
BITMAP
90
ENDCHAR
STARTCHAR cedilla
ENCODING 184
SWIDTH 567 0
DWIDTH 6 0
BBX 2 3 3 -2
BITMAP
80
90
40
ENDCHAR
STARTCHAR onesuperior
ENCODING 185
SWIDTH 150 0
DWIDTH 2 0
BBX 2 5 0 3
BITMAP
10
20
20
50
80
ENDCHAR
STARTCHAR ordmasculine
ENCODING 186
SWIDTH 319 0
DWIDTH 3 0
BBX 5 5 -1 0
BITMAP
1800
2240
2A00
2800
6800
ENDCHAR
STARTCHAR guillemotright
ENCODING 187
SWIDTH 346 0
DWIDTH 3 0
BBX 4 4 -1 0
BITMAP
14
16
16
58
ENDCHAR
STARTCHAR onequarter
ENCODING 188
SWIDTH 579 0
DWIDTH 6 0
BBX 6 8 0 0
BITMAP
1000
2080
2140
5540
8990
2680
6180
8080
ENDCHAR
STARTCHAR onehalf
ENCODING 189
SWIDTH 603 0
DWIDTH 6 0
BBX 6 8 0 0
BITMAP
1000
2080
2140
5650
9960
2450
6140
8380
ENDCHAR
STARTCHAR threequarters
ENCODING 190
SWIDTH 669 0
DWIDTH 7 0
BBX 6 8 0 0
BITMAP
1400
6820
1880
1950
9670
19A0
1460
2060
ENDCHAR
STARTCHAR questiondown
ENCODING 191
SWIDTH 413 0
DWIDTH 4 0
BBX 5 9 -1 -1
BITMAP
0040
0080
0080
0140
0A00
2000
5140
6640
0400
ENDCHAR
STARTCHAR Agrave
ENCODING 192
SWIDTH 552 0
DWIDTH 6 0
BBX 6 13 -1 -3
BITMAP
0050
0010
0010
01A0
0220
0920
0860
1990
79D0
3080
60C0
90D0
0040
ENDCHAR
STARTCHAR Aacute
ENCODING 193
SWIDTH 552 0
DWIDTH 6 0
BBX 6 12 -1 -3
BITMAP
0020
0050
01A0
0220
0920
0860
1990
79D0
3080
60C0
90D0
0040
ENDCHAR
STARTCHAR Acircumflex
ENCODING 194
SWIDTH 552 0
DWIDTH 6 0
BBX 6 12 -1 -3
BITMAP
0060
0050
01A0
0220
0920
0860
1990
79D0
3080
60C0
90D0
0040
ENDCHAR
STARTCHAR Atilde
ENCODING 195
SWIDTH 552 0
DWIDTH 6 0
BBX 7 12 -1 -3
BITMAP
0094
0050
01A0
0220
0920
0860
1990
79D0
3080
60C0
90D0
0040
ENDCHAR
STARTCHAR Adieresis
ENCODING 196
SWIDTH 552 0
DWIDTH 6 0
BBX 7 12 -1 -3
BITMAP
0054
0050
01A0
0220
0920
0860
1990
79D0
3080
60C0
90D0
0040
ENDCHAR
STARTCHAR Aring
ENCODING 197
SWIDTH 552 0
DWIDTH 6 0
BBX 6 12 -1 -3
BITMAP
0010
0060
01A0
0220
0920
0860
1990
79D0
3080
60C0
90D0
0040
ENDCHAR
STARTCHAR AE
ENCODING 198
SWIDTH 869 0
DWIDTH 9 0
BBX 10 11 -1 -3
BITMAP
001140
01A960
023820
093450
087800
19AA00
79E000
309040
60E140
90E900
004000
ENDCHAR
STARTCHAR Ccedilla
ENCODING 199
SWIDTH 548 0
DWIDTH 5 0
BBX 6 12 0 -4
BITMAP
0140
0990
2450
70D0
A000
D000
C000
C000
9100
2900
1800
1400
ENDCHAR
STARTCHAR Egrave
ENCODING 200
SWIDTH 523 0
DWIDTH 5 0
BBX 7 11 -1 -2
BITMAP
0090
0060
0664
0C24
1C20
0D00
0A40
2000
6010
3080
1A00
ENDCHAR
STARTCHAR Eacute
ENCODING 201
SWIDTH 523 0
DWIDTH 5 0
BBX 7 11 -1 -2
BITMAP
0020
0090
0664
0C24
1C20
0D00
0A40
2000
6010
3080
1A00
ENDCHAR
STARTCHAR Ecircumflex
ENCODING 202
SWIDTH 523 0
DWIDTH 5 0
BBX 7 11 -1 -2
BITMAP
0060
0050
0664
0C24
1C20
0D00
0A40
2000
6010
3080
1A00
ENDCHAR
STARTCHAR Edieresis
ENCODING 203
SWIDTH 523 0
DWIDTH 5 0
BBX 7 11 -1 -2
BITMAP
0054
0050
0664
0C24
1C20
0D00
0A40
2000
6010
3080
1A00
ENDCHAR
STARTCHAR Igrave
ENCODING 204
SWIDTH 537 0
DWIDTH 5 0
BBX 6 11 -1 -2
BITMAP
0050
0020
01A0
0220
0360
0250
0190
2AD0
A180
9200
2900
ENDCHAR
STARTCHAR Iacute
ENCODING 205
SWIDTH 537 0
DWIDTH 5 0
BBX 6 11 -1 -2
BITMAP
0010
0050
01A0
0220
0360
0250
0190
2AD0
A180
9200
2900
ENDCHAR
STARTCHAR Icircumflex
ENCODING 206
SWIDTH 537 0
DWIDTH 5 0
BBX 7 11 -1 -2
BITMAP
0024
0054
01A0
0220
0360
0250
0190
2AD0
A180
9200
2900
ENDCHAR
STARTCHAR Idieresis
ENCODING 207
SWIDTH 537 0
DWIDTH 5 0
BBX 7 11 -1 -2
BITMAP
0054
0050
01A0
0220
0360
0250
0190
2AD0
A180
9200
2900
ENDCHAR
STARTCHAR Eth
ENCODING 208
SWIDTH 632 0
DWIDTH 6 0
BBX 6 10 0 -2
BITMAP
0500
2980
1460
2430
2430
B460
2090
5180
9200
A800
ENDCHAR
STARTCHAR Ntilde
ENCODING 209
SWIDTH 541 0
DWIDTH 5 0
BBX 8 11 -1 -2
BITMAP
0190
0014
0929
0D24
1A74
1660
2250
2280
6280
6280
6140
ENDCHAR
STARTCHAR Ograve
ENCODING 210
SWIDTH 567 0
DWIDTH 6 0
BBX 5 11 0 -2
BITMAP
0240
0140
0980
2480
6080
9080
90C0
C080
C240
8200
6800
ENDCHAR
STARTCHAR Oacute
ENCODING 211
SWIDTH 567 0
DWIDTH 6 0
BBX 5 11 0 -2
BITMAP
0140
0240
0980
2480
6080
9080
90C0
C080
C240
8200
6800
ENDCHAR
STARTCHAR Ocircumflex
ENCODING 212
SWIDTH 567 0
DWIDTH 6 0
BBX 5 11 0 -2
BITMAP
0180
0540
0980
2480
6080
9080
90C0
C080
C240
8200
6800
ENDCHAR
STARTCHAR Otilde
ENCODING 213
SWIDTH 567 0
DWIDTH 6 0
BBX 5 11 0 -2
BITMAP
0640
0540
0980
2480
6080
9080
90C0
C080
C240
8200
6800
ENDCHAR
STARTCHAR Odieresis
ENCODING 214
SWIDTH 567 0
DWIDTH 6 0
BBX 5 11 0 -2
BITMAP
0140
0540
0980
2480
6080
9080
90C0
C080
C240
8200
6800
ENDCHAR
STARTCHAR multiply
ENCODING 215
SWIDTH 281 0
DWIDTH 3 0
BBX 3 3 0 2
BITMAP
58
30
A0
ENDCHAR
STARTCHAR Oslash
ENCODING 216
SWIDTH 597 0
DWIDTH 6 0
BBX 6 10 0 -2
BITMAP
0150
09D0
24D0
3290
6690
9880
A8C0
B180
A200
E800
ENDCHAR
STARTCHAR Ugrave
ENCODING 217
SWIDTH 574 0
DWIDTH 6 0
BBX 6 11 0 -2
BITMAP
0240
0050
1870
2460
3090
60C0
9080
8180
C240
C740
6540
ENDCHAR
STARTCHAR Uacute
ENCODING 218
SWIDTH 574 0
DWIDTH 6 0
BBX 6 11 0 -2
BITMAP
0040
0150
1870
2460
3090
60C0
9080
8180
C240
C740
6540
ENDCHAR
STARTCHAR Ucircumflex
ENCODING 219
SWIDTH 574 0
DWIDTH 6 0
BBX 6 11 0 -2
BITMAP
0180
0110
1870
2460
3090
60C0
9080
8180
C240
C740
6540
ENDCHAR
STARTCHAR Udieresis
ENCODING 220
SWIDTH 574 0
DWIDTH 6 0
BBX 6 11 0 -2
BITMAP
0150
0010
1870
2460
3090
60C0
9080
8180
C240
C740
6540
ENDCHAR
STARTCHAR Yacute
ENCODING 221
SWIDTH 532 0
DWIDTH 5 0
BBX 6 11 0 -2
BITMAP
0080
0110
2460
3090
60C0
5180
9240
AA40
1200
4500
A400
ENDCHAR
STARTCHAR Thorn
ENCODING 222
SWIDTH 569 0
DWIDTH 6 0
BBX 7 9 -1 -2
BITMAP
0500
0A90
2C24
1824
1420
24A0
3640
3000
6000
ENDCHAR
STARTCHAR germandbls
ENCODING 223
SWIDTH 495 0
DWIDTH 5 0
BBX 6 12 -1 -5
BITMAP
0140
0980
0880
1540
2080
6090
6790
5900
8800
8800
A400
9000
ENDCHAR
STARTCHAR agrave
ENCODING 224
SWIDTH 435 0
DWIDTH 4 0
BBX 5 6 0 0
BITMAP
1400
0400
2800
8800
8840
EA00
ENDCHAR
STARTCHAR aacute
ENCODING 225
SWIDTH 435 0
DWIDTH 4 0
BBX 5 6 0 0
BITMAP
0800
1400
2800
8800
8840
EA00
ENDCHAR
STARTCHAR acircumflex
ENCODING 226
SWIDTH 435 0
DWIDTH 4 0
BBX 5 6 0 0
BITMAP
1800
1000
2800
8800
8840
EA00
ENDCHAR
STARTCHAR atilde
ENCODING 227
SWIDTH 435 0
DWIDTH 4 0
BBX 5 6 0 0
BITMAP
2500
0400
2800
8800
8840
EA00
ENDCHAR
STARTCHAR adieresis
ENCODING 228
SWIDTH 435 0
DWIDTH 4 0
BBX 5 6 0 0
BITMAP
1500
0000
2800
8800
8840
EA00
ENDCHAR
STARTCHAR aring
ENCODING 229
SWIDTH 435 0
DWIDTH 4 0
BBX 5 6 0 0
BITMAP
1400
0400
2800
8800
8840
EA00
ENDCHAR
STARTCHAR ae
ENCODING 230
SWIDTH 594 0
DWIDTH 6 0
BBX 7 5 0 -1
BITMAP
2A80
8980
8D14
EA90
0100
ENDCHAR
STARTCHAR ccedilla
ENCODING 231
SWIDTH 363 0
DWIDTH 4 0
BBX 4 6 0 -2
BITMAP
68
84
81
98
60
20
ENDCHAR
STARTCHAR egrave
ENCODING 232
SWIDTH 372 0
DWIDTH 4 0
BBX 4 7 0 -1
BITMAP
24
04
28
94
D1
98
10
ENDCHAR
STARTCHAR eacute
ENCODING 233
SWIDTH 372 0
DWIDTH 4 0
BBX 4 7 0 -1
BITMAP
08
14
28
94
D1
98
10
ENDCHAR
STARTCHAR ecircumflex
ENCODING 234
SWIDTH 372 0
DWIDTH 4 0
BBX 4 7 0 -1
BITMAP
18
10
28
94
D1
98
10
ENDCHAR
STARTCHAR edieresis
ENCODING 235
SWIDTH 372 0
DWIDTH 4 0
BBX 4 7 0 -1
BITMAP
15
00
28
94
D1
98
10
ENDCHAR
STARTCHAR igrave
ENCODING 236
SWIDTH 274 0
DWIDTH 3 0
BBX 3 6 0 0
BITMAP
90
10
50
90
84
A4
ENDCHAR
STARTCHAR iacute
ENCODING 237
SWIDTH 274 0
DWIDTH 3 0
BBX 3 6 0 0
BITMAP
08
10
50
90
84
A4
ENDCHAR
STARTCHAR icircumflex
ENCODING 238
SWIDTH 274 0
DWIDTH 3 0
BBX 3 6 0 0
BITMAP
24
44
50
90
84
A4
ENDCHAR
STARTCHAR idieresis
ENCODING 239
SWIDTH 274 0
DWIDTH 3 0
BBX 3 6 0 0
BITMAP
54
00
50
90
84
A4
ENDCHAR
STARTCHAR eth
ENCODING 240
SWIDTH 393 0
DWIDTH 4 0
BBX 5 7 0 0
BITMAP
0400
0A00
1800
6800
9940
AD00
A400
ENDCHAR
STARTCHAR ntilde
ENCODING 241
SWIDTH 461 0
DWIDTH 5 0
BBX 5 6 0 0
BITMAP
2500
0000
6900
A500
8840
8A40
ENDCHAR
STARTCHAR ograve
ENCODING 242
SWIDTH 393 0
DWIDTH 4 0
BBX 5 6 0 0
BITMAP
2400
0400
6400
9940
AC00
A400
ENDCHAR
STARTCHAR oacute
ENCODING 243
SWIDTH 393 0
DWIDTH 4 0
BBX 5 6 0 0
BITMAP
0800
1400
6400
9940
AC00
A400
ENDCHAR
STARTCHAR ocircumflex
ENCODING 244
SWIDTH 393 0
DWIDTH 4 0
BBX 5 6 0 0
BITMAP
1800
0400
6400
9940
AC00
A400
ENDCHAR
STARTCHAR otilde
ENCODING 245
SWIDTH 393 0
DWIDTH 4 0
BBX 5 6 0 0
BITMAP
6500
0400
6400
9940
AC00
A400
ENDCHAR
STARTCHAR odieresis
ENCODING 246
SWIDTH 393 0
DWIDTH 4 0
BBX 5 6 0 0
BITMAP
1500
0000
6400
9940
AC00
A400
ENDCHAR
STARTCHAR divide
ENCODING 247
SWIDTH 350 0
DWIDTH 4 0
BBX 4 3 0 2
BITMAP
14
A9
20
ENDCHAR
STARTCHAR oslash
ENCODING 248
SWIDTH 406 0
DWIDTH 4 0
BBX 6 6 -1 -1
BITMAP
0040
0A00
2650
2740
2900
5000
ENDCHAR
STARTCHAR ugrave
ENCODING 249
SWIDTH 468 0
DWIDTH 5 0
BBX 5 6 0 0
BITMAP
1400
0400
5500
8900
8840
AA40
ENDCHAR
STARTCHAR uacute
ENCODING 250
SWIDTH 468 0
DWIDTH 5 0
BBX 5 6 0 0
BITMAP
0500
1400
5500
8900
8840
AA40
ENDCHAR
STARTCHAR ucircumflex
ENCODING 251
SWIDTH 468 0
DWIDTH 5 0
BBX 5 6 0 0
BITMAP
1900
1100
5500
8900
8840
AA40
ENDCHAR
STARTCHAR udieresis
ENCODING 252
SWIDTH 468 0
DWIDTH 5 0
BBX 5 6 0 0
BITMAP
1500
0000
5500
8900
8840
AA40
ENDCHAR
STARTCHAR yacute
ENCODING 253
SWIDTH 406 0
DWIDTH 4 0
BBX 4 10 0 -4
BITMAP
05
04
95
85
8C
E8
18
14
20
30
ENDCHAR
STARTCHAR thorn
ENCODING 254
SWIDTH 451 0
DWIDTH 5 0
BBX 6 11 -1 -4
BITMAP
0900
0800
0800
1A40
1940
2250
3F80
6400
5000
8000
C000
ENDCHAR
STARTCHAR ydieresis
ENCODING 255
SWIDTH 406 0
DWIDTH 4 0
BBX 4 10 0 -4
BITMAP
15
00
95
85
8C
E8
18
14
20
30
ENDCHAR
STARTCHAR dotlessi
ENCODING 305
SWIDTH 274 0
DWIDTH 3 0
BBX 3 4 0 0
BITMAP
50
90
84
A4
ENDCHAR
STARTCHAR Lslash
ENCODING 321
SWIDTH 492 0
DWIDTH 5 0
BBX 7 10 -1 -2
BITMAP
0010
00A4
01A0
02D0
1B40
0740
1A00
0800
BC00
56D0
ENDCHAR
STARTCHAR lslash
ENCODING 322
SWIDTH 218 0
DWIDTH 2 0
BBX 4 7 -1 0
BITMAP
09
0C
08
69
24
20
20
ENDCHAR
STARTCHAR OE
ENCODING 338
SWIDTH 918 0
DWIDTH 9 0
BBX 10 10 0 -2
BITMAP
010140
099990
24B090
60B080
90B000
90E900
C0C000
C28040
82C200
686800
ENDCHAR
STARTCHAR oe
ENCODING 339
SWIDTH 583 0
DWIDTH 6 0
BBX 7 5 0 -1
BITMAP
6A80
9980
AD14
AA50
0100
ENDCHAR
STARTCHAR Scaron
ENCODING 352
SWIDTH 474 0
DWIDTH 5 0
BBX 7 11 -1 -2
BITMAP
0094
0190
0A60
0830
1850
0A00
0340
0180
5140
6200
2900
ENDCHAR
STARTCHAR scaron
ENCODING 353
SWIDTH 351 0
DWIDTH 4 0
BBX 3 8 0 -1
BITMAP
24
00
10
30
64
58
94
10
ENDCHAR
STARTCHAR Ydieresis
ENCODING 376
SWIDTH 532 0
DWIDTH 5 0
BBX 6 11 0 -2
BITMAP
0140
0450
2460
3090
60C0
5180
9240
AA40
1200
4500
A400
ENDCHAR
STARTCHAR Zcaron
ENCODING 381
SWIDTH 455 0
DWIDTH 5 0
BBX 6 11 -1 -2
BITMAP
0090
0190
0AB0
0060
00C0
0240
0900
1800
2000
9540
AA40
ENDCHAR
STARTCHAR zcaron
ENCODING 382
SWIDTH 349 0
DWIDTH 4 0
BBX 6 11 -2 -5
BITMAP
0250
0040
0A80
0140
0210
0990
0640
2600
2600
6800
1000
ENDCHAR
STARTCHAR circumflex
ENCODING 710
SWIDTH 567 0
DWIDTH 6 0
BBX 3 2 2 5
BITMAP
24
44
ENDCHAR
STARTCHAR caron
ENCODING 711
SWIDTH 567 0
DWIDTH 6 0
BBX 3 2 2 5
BITMAP
94
10
ENDCHAR
STARTCHAR breve
ENCODING 728
SWIDTH 567 0
DWIDTH 6 0
BBX 3 2 2 5
BITMAP
44
60
ENDCHAR
STARTCHAR dotaccent
ENCODING 729
SWIDTH 567 0
DWIDTH 6 0
BBX 1 1 3 6
BITMAP
40
ENDCHAR
STARTCHAR ring
ENCODING 730
SWIDTH 567 0
DWIDTH 6 0
BBX 1 2 3 5
BITMAP
40
40
ENDCHAR
STARTCHAR ogonek
ENCODING 731
SWIDTH 567 0
DWIDTH 6 0
BBX 3 2 2 -1
BITMAP
40
94
ENDCHAR
STARTCHAR tilde
ENCODING 732
SWIDTH 567 0
DWIDTH 6 0
BBX 3 1 2 6
BITMAP
54
ENDCHAR
STARTCHAR hungarumlaut
ENCODING 733
SWIDTH 567 0
DWIDTH 6 0
BBX 3 2 2 5
BITMAP
58
50
ENDCHAR
STARTCHAR endash
ENCODING 8211
SWIDTH 353 0
DWIDTH 4 0
BBX 3 2 0 2
BITMAP
54
54
ENDCHAR
STARTCHAR emdash
ENCODING 8212
SWIDTH 508 0
DWIDTH 5 0
BBX 5 2 0 2
BITMAP
6A40
5540
ENDCHAR
STARTCHAR quoteleft
ENCODING 8216
SWIDTH 155 0
DWIDTH 2 0
BBX 2 2 0 5
BITMAP
10
50
ENDCHAR
STARTCHAR quoteright
ENCODING 8217
SWIDTH 154 0
DWIDTH 2 0
BBX 2 2 0 5
BITMAP
60
20
ENDCHAR
STARTCHAR quotesinglbase
ENCODING 8218
SWIDTH 188 0
DWIDTH 2 0
BBX 2 2 -1 -1
BITMAP
60
10
ENDCHAR
STARTCHAR quotedblleft
ENCODING 8220
SWIDTH 289 0
DWIDTH 3 0
BBX 3 3 0 4
BITMAP
14
68
04
ENDCHAR
STARTCHAR quotedblright
ENCODING 8221
SWIDTH 288 0
DWIDTH 3 0
BBX 3 2 0 5
BITMAP
68
28
ENDCHAR
STARTCHAR quotedblbase
ENCODING 8222
SWIDTH 323 0
DWIDTH 3 0
BBX 3 2 -1 -1
BITMAP
6C
18
ENDCHAR
STARTCHAR bullet
ENCODING 8226
SWIDTH 180 0
DWIDTH 2 0
BBX 2 3 0 1
BITMAP
90
D0
40
ENDCHAR
STARTCHAR ellipsis
ENCODING 8230
SWIDTH 614 0
DWIDTH 6 0
BBX 5 1 0 0
BITMAP
8880
ENDCHAR
STARTCHAR perthousand
ENCODING 8240
SWIDTH 851 0
DWIDTH 9 0
BBX 8 8 0 0
BITMAP
0010
6890
8980
5A00
0941
169A
2566
929A
ENDCHAR
STARTCHAR guilsinglleft
ENCODING 8249
SWIDTH 202 0
DWIDTH 2 0
BBX 3 4 -1 0
BITMAP
04
20
60
20
ENDCHAR
STARTCHAR guilsinglright
ENCODING 8250
SWIDTH 202 0
DWIDTH 2 0
BBX 3 4 -1 0
BITMAP
10
14
14
50
ENDCHAR
STARTCHAR fraction
ENCODING 8260
SWIDTH 600 0
DWIDTH 6 0
BBX 6 8 0 0
BITMAP
0010
0060
0080
0200
0500
0800
2000
5000
ENDCHAR
STARTCHAR Euro
ENCODING 8364
SWIDTH 334 0
DWIDTH 3 0
BBX 4 7 0 0
BITMAP
05
21
64
E4
80
54
10
ENDCHAR
STARTCHAR minus
ENCODING 8722
SWIDTH 353 0
DWIDTH 4 0
BBX 3 2 0 2
BITMAP
54
54
ENDCHAR
STARTCHAR fi
ENCODING 64257
SWIDTH 549 0
DWIDTH 6 0
BBX 7 12 -1 -5
BITMAP
0910
0920
0800
0850
19C0
3088
28A0
5500
5500
8800
9800
9000
ENDCHAR
STARTCHAR fl
ENCODING 64258
SWIDTH 516 0
DWIDTH 5 0
BBX 6 12 -1 -5
BITMAP
0920
0930
0820
0850
1990
3080
2880
5500
5500
8800
9800
9000
ENDCHAR
STARTCHAR .notdef
ENCODING -1
SWIDTH 280 0
DWIDTH 3 0
BBX 1 1 0 0
BITMAP
00
ENDCHAR
ENDFONT
